<?xml version="1.0" encoding="UTF-8" standalone="no"?>
<!DOCTYPE svg PUBLIC "-//W3C//DTD SVG 1.1//EN"
 "http://www.w3.org/Graphics/SVG/1.1/DTD/svg11.dtd">
<!-- Generated by graphviz version 14.1.1 (0)
 -->
<!-- Title: FRO_RNG Pages: 1 -->
<svg width="756pt" height="526pt"
 viewBox="0.00 0.00 756.00 526.00" xmlns="http://www.w3.org/2000/svg" xmlns:xlink="http://www.w3.org/1999/xlink">
<g id="graph0" class="graph" transform="scale(1 1) rotate(0) translate(4 522)">
<title>FRO_RNG</title>
<polygon fill="white" stroke="none" points="-4,4 -4,-522 751.5,-522 751.5,4 -4,4"/>
<!-- ro1 -->
<g id="node1" class="node">
<title>ro1</title>
<path fill="none" stroke="black" d="M147.25,-422C147.25,-422 12,-422 12,-422 6,-422 0,-416 0,-410 0,-410 0,-396 0,-396 0,-390 6,-384 12,-384 12,-384 147.25,-384 147.25,-384 153.25,-384 159.25,-390 159.25,-396 159.25,-396 159.25,-410 159.25,-410 159.25,-416 153.25,-422 147.25,-422"/>
<text xml:space="preserve" text-anchor="middle" x="79.62" y="-404.7" font-family="Helvetica,sans-Serif" font-size="14.00">Oscylator pierścieniowy</text>
<text xml:space="preserve" text-anchor="middle" x="79.62" y="-389.7" font-family="Helvetica,sans-Serif" font-size="14.00"> długość = 5</text>
</g>
<!-- xor -->
<g id="node6" class="node">
<title>xor</title>
<path fill="none" stroke="black" d="M295.75,-239C295.75,-239 265.75,-239 265.75,-239 259.75,-239 253.75,-233 253.75,-227 253.75,-227 253.75,-215 253.75,-215 253.75,-209 259.75,-203 265.75,-203 265.75,-203 295.75,-203 295.75,-203 301.75,-203 307.75,-209 307.75,-215 307.75,-215 307.75,-227 307.75,-227 307.75,-233 301.75,-239 295.75,-239"/>
<text xml:space="preserve" text-anchor="middle" x="280.75" y="-215.2" font-family="Helvetica,sans-Serif" font-size="14.00">XOR</text>
</g>
<!-- ro1&#45;&gt;xor -->
<g id="edge1" class="edge">
<title>ro1&#45;&gt;xor</title>
<path fill="none" stroke="black" d="M159.59,-388C215.61,-388 280.5,-388 280.5,-388 280.5,-388 280.5,-250.7 280.5,-250.7"/>
<polygon fill="black" stroke="black" points="284,-250.7 280.5,-240.7 277,-250.7 284,-250.7"/>
</g>
<!-- ro2 -->
<g id="node2" class="node">
<title>ro2</title>
<path fill="none" stroke="black" d="M147.25,-230C147.25,-230 12,-230 12,-230 6,-230 0,-224 0,-218 0,-218 0,-204 0,-204 0,-198 6,-192 12,-192 12,-192 147.25,-192 147.25,-192 153.25,-192 159.25,-198 159.25,-204 159.25,-204 159.25,-218 159.25,-218 159.25,-224 153.25,-230 147.25,-230"/>
<text xml:space="preserve" text-anchor="middle" x="79.62" y="-212.7" font-family="Helvetica,sans-Serif" font-size="14.00">Oscylator pierścieniowy</text>
<text xml:space="preserve" text-anchor="middle" x="79.62" y="-197.7" font-family="Helvetica,sans-Serif" font-size="14.00"> długość = 7</text>
</g>
<!-- ro2&#45;&gt;xor -->
<g id="edge2" class="edge">
<title>ro2&#45;&gt;xor</title>
<path fill="none" stroke="black" d="M159.69,-216.5C159.69,-216.5 242.02,-216.5 242.02,-216.5"/>
<polygon fill="black" stroke="black" points="242.02,-220 252.02,-216.5 242.02,-213 242.02,-220"/>
</g>
<!-- ro3 -->
<g id="node3" class="node">
<title>ro3</title>
<path fill="none" stroke="black" d="M147.25,-134C147.25,-134 12,-134 12,-134 6,-134 0,-128 0,-122 0,-122 0,-108 0,-108 0,-102 6,-96 12,-96 12,-96 147.25,-96 147.25,-96 153.25,-96 159.25,-102 159.25,-108 159.25,-108 159.25,-122 159.25,-122 159.25,-128 153.25,-134 147.25,-134"/>
<text xml:space="preserve" text-anchor="middle" x="79.62" y="-116.7" font-family="Helvetica,sans-Serif" font-size="14.00">Oscylator pierścieniowy</text>
<text xml:space="preserve" text-anchor="middle" x="79.62" y="-101.7" font-family="Helvetica,sans-Serif" font-size="14.00"> długość = 9</text>
</g>
<!-- ro3&#45;&gt;xor -->
<g id="edge3" class="edge">
<title>ro3&#45;&gt;xor</title>
<path fill="none" stroke="black" d="M159.61,-115C212.26,-115 271.5,-115 271.5,-115 271.5,-115 271.5,-191.02 271.5,-191.02"/>
<polygon fill="black" stroke="black" points="268,-191.02 271.5,-201.02 275,-191.02 268,-191.02"/>
</g>
<!-- ro4 -->
<g id="node4" class="node">
<title>ro4</title>
<path fill="none" stroke="black" d="M147.25,-38C147.25,-38 12,-38 12,-38 6,-38 0,-32 0,-26 0,-26 0,-12 0,-12 0,-6 6,0 12,0 12,0 147.25,0 147.25,0 153.25,0 159.25,-6 159.25,-12 159.25,-12 159.25,-26 159.25,-26 159.25,-32 153.25,-38 147.25,-38"/>
<text xml:space="preserve" text-anchor="middle" x="79.62" y="-20.7" font-family="Helvetica,sans-Serif" font-size="14.00">Oscylator pierścieniowy</text>
<text xml:space="preserve" text-anchor="middle" x="79.62" y="-5.7" font-family="Helvetica,sans-Serif" font-size="14.00"> długość = 11</text>
</g>
<!-- ro4&#45;&gt;xor -->
<g id="edge4" class="edge">
<title>ro4&#45;&gt;xor</title>
<path fill="none" stroke="black" d="M159.57,-19C218.88,-19 289.5,-19 289.5,-19 289.5,-19 289.5,-191.2 289.5,-191.2"/>
<polygon fill="black" stroke="black" points="286,-191.2 289.5,-201.2 293,-191.2 286,-191.2"/>
</g>
<!-- ro5 -->
<g id="node5" class="node">
<title>ro5</title>
<path fill="none" stroke="black" d="M147.25,-326C147.25,-326 12,-326 12,-326 6,-326 0,-320 0,-314 0,-314 0,-300 0,-300 0,-294 6,-288 12,-288 12,-288 147.25,-288 147.25,-288 153.25,-288 159.25,-294 159.25,-300 159.25,-300 159.25,-314 159.25,-314 159.25,-320 153.25,-326 147.25,-326"/>
<text xml:space="preserve" text-anchor="middle" x="79.62" y="-308.7" font-family="Helvetica,sans-Serif" font-size="14.00">Oscylator pierścieniowy</text>
<text xml:space="preserve" text-anchor="middle" x="79.62" y="-293.7" font-family="Helvetica,sans-Serif" font-size="14.00"> długość = 13</text>
</g>
<!-- ro5&#45;&gt;xor -->
<g id="edge5" class="edge">
<title>ro5&#45;&gt;xor</title>
<path fill="none" stroke="black" d="M159.57,-307C210.71,-307 267.5,-307 267.5,-307 267.5,-307 267.5,-250.75 267.5,-250.75"/>
<polygon fill="black" stroke="black" points="271,-250.75 267.5,-240.75 264,-250.75 271,-250.75"/>
</g>
<!-- dff -->
<g id="node7" class="node">
<title>dff</title>
<path fill="none" stroke="black" d="M541.75,-396C541.75,-396 439.5,-396 439.5,-396 433.5,-396 427.5,-390 427.5,-384 427.5,-384 427.5,-372 427.5,-372 427.5,-366 433.5,-360 439.5,-360 439.5,-360 541.75,-360 541.75,-360 547.75,-360 553.75,-366 553.75,-372 553.75,-372 553.75,-384 553.75,-384 553.75,-390 547.75,-396 541.75,-396"/>
<text xml:space="preserve" text-anchor="middle" x="490.62" y="-372.2" font-family="Helvetica,sans-Serif" font-size="14.00">Przerzutnik typu D</text>
</g>
<!-- xor&#45;&gt;dff -->
<g id="edge6" class="edge">
<title>xor&#45;&gt;dff</title>
<path fill="none" stroke="black" d="M294.5,-239.21C294.5,-279.38 294.5,-372 294.5,-372 294.5,-372 415.71,-372 415.71,-372"/>
<polygon fill="black" stroke="black" points="415.71,-375.5 425.71,-372 415.71,-368.5 415.71,-375.5"/>
<text xml:space="preserve" text-anchor="middle" x="378.38" y="-302.7" font-family="Helvetica,sans-Serif" font-size="14.00">D</text>
</g>
<!-- data_out -->
<g id="node8" class="node">
<title>data_out</title>
<polygon fill="none" stroke="black" points="729.5,-390 637,-390 637,-366 729.5,-366 729.5,-360 747.5,-378 729.5,-396 729.5,-390"/>
<text xml:space="preserve" text-anchor="middle" x="692.25" y="-372.2" font-family="Helvetica,sans-Serif" font-size="14.00">Wyjście danych</text>
</g>
<!-- dff&#45;&gt;data_out -->
<g id="edge7" class="edge">
<title>dff&#45;&gt;data_out</title>
<path fill="none" stroke="black" d="M554.14,-378C554.14,-378 625.03,-378 625.03,-378"/>
<polygon fill="black" stroke="black" points="625.03,-381.5 635.03,-378 625.03,-374.5 625.03,-381.5"/>
<text xml:space="preserve" text-anchor="middle" x="595.38" y="-379.7" font-family="Helvetica,sans-Serif" font-size="14.00">Q</text>
</g>
<!-- clk -->
<g id="node9" class="node">
<title>clk</title>
<path fill="none" stroke="black" d="M146.88,-518C146.88,-518 12.38,-518 12.38,-518 6.38,-518 0.38,-512 0.38,-506 0.38,-506 0.38,-492 0.38,-492 0.38,-486 6.38,-480 12.38,-480 12.38,-480 146.88,-480 146.88,-480 152.88,-480 158.88,-486 158.88,-492 158.88,-492 158.88,-506 158.88,-506 158.88,-512 152.88,-518 146.88,-518"/>
<text xml:space="preserve" text-anchor="middle" x="79.62" y="-500.7" font-family="Helvetica,sans-Serif" font-size="14.00">Zegar</text>
<text xml:space="preserve" text-anchor="middle" x="79.62" y="-485.7" font-family="Helvetica,sans-Serif" font-size="14.00">częstotliwość = 27 MHz</text>
</g>
<!-- counter -->
<g id="node10" class="node">
<title>counter</title>
<path fill="none" stroke="black" d="M317.25,-515.5C317.25,-515.5 244.25,-515.5 244.25,-515.5 238.25,-515.5 232.25,-509.5 232.25,-503.5 232.25,-503.5 232.25,-474.5 232.25,-474.5 232.25,-468.5 238.25,-462.5 244.25,-462.5 244.25,-462.5 317.25,-462.5 317.25,-462.5 323.25,-462.5 329.25,-468.5 329.25,-474.5 329.25,-474.5 329.25,-503.5 329.25,-503.5 329.25,-509.5 323.25,-515.5 317.25,-515.5"/>
<text xml:space="preserve" text-anchor="middle" x="280.75" y="-498.2" font-family="Helvetica,sans-Serif" font-size="14.00">Licznik</text>
<text xml:space="preserve" text-anchor="middle" x="280.75" y="-483.2" font-family="Helvetica,sans-Serif" font-size="14.00"> długość = 13</text>
<text xml:space="preserve" text-anchor="middle" x="280.75" y="-468.2" font-family="Helvetica,sans-Serif" font-size="14.00"> f ≈ 1 MHz</text>
</g>
<!-- clk&#45;&gt;counter -->
<g id="edge8" class="edge">
<title>clk&#45;&gt;counter</title>
<path fill="none" stroke="black" d="M159.11,-497.75C159.11,-497.75 220.42,-497.75 220.42,-497.75"/>
<polygon fill="black" stroke="black" points="220.42,-501.25 230.42,-497.75 220.42,-494.25 220.42,-501.25"/>
</g>
<!-- counter&#45;&gt;dff -->
<g id="edge9" class="edge">
<title>counter&#45;&gt;dff</title>
<path fill="none" stroke="black" d="M318.5,-462.24C318.5,-433.53 318.5,-392 318.5,-392 318.5,-392 415.51,-392 415.51,-392"/>
<polygon fill="black" stroke="black" points="415.51,-395.5 425.51,-392 415.51,-388.5 415.51,-395.5"/>
<text xml:space="preserve" text-anchor="middle" x="378.38" y="-420.7" font-family="Helvetica,sans-Serif" font-size="14.00">CLK</text>
</g>
<!-- clk_out -->
<g id="node11" class="node">
<title>clk_out</title>
<polygon fill="none" stroke="black" points="535.38,-501 427.88,-501 427.88,-477 535.38,-477 535.38,-471 553.38,-489 535.38,-507 535.38,-501"/>
<text xml:space="preserve" text-anchor="middle" x="490.62" y="-483.2" font-family="Helvetica,sans-Serif" font-size="14.00">Wyjście zegarowe</text>
</g>
<!-- counter&#45;&gt;clk_out -->
<g id="edge10" class="edge">
<title>counter&#45;&gt;clk_out</title>
<path fill="none" stroke="black" d="M329.69,-489C329.69,-489 416.11,-489 416.11,-489"/>
<polygon fill="black" stroke="black" points="416.11,-492.5 426.11,-489 416.11,-485.5 416.11,-492.5"/>
</g>
</g>
</svg>
